<svg width="150" height="150" viewBox="0 0 150 150" fill="none" xmlns="http://www.w3.org/2000/svg">
<path d="M105 60H93.75V71.25H105V60Z" fill="#EAD13F"/>
<path d="M105 71.25H93.75V82.5H105V71.25Z" fill="#D1712A"/>
<path d="M105 82.5H93.75V93.75H105V82.5Z" fill="#CC4121"/>
<path d="M116.25 82.5H105V93.75H116.25V82.5Z" fill="#8D3E93"/>
<path d="M116.25 71.25H105V82.5H116.25V71.25Z" fill="#248EBC"/>
<path d="M116.25 60H105V71.25H116.25V60Z" fill="#6F9B45"/>
<path d="M33.75 48.75H86.25V93.75H33.75V48.75ZM93.75 48.75V60H105V48.75H93.75Z" fill="#FFFAEE"/>
<path d="M135 112.5V30H15V112.5H63.75V123.75H60V127.5H93.75V123.75H90V112.5H135ZM18.75 108.75V33.75H131.25V108.75H18.75ZM86.25 123.75H67.5V112.5H86.25V123.75ZM116.25 60H105V48.75H116.25V60Z" fill="#231F20"/>
</svg>
