<svg width="150" height="150" viewBox="0 0 150 150" fill="none" xmlns="http://www.w3.org/2000/svg">
<path d="M145.182 63.911L130.772 36.3156C129.913 34.6875 128.452 33.4593 126.7 32.8925C124.949 32.3257 123.045 32.465 121.395 33.2809L107.259 40.3485H96.5997L76.8046 31.3917C75.2754 30.7009 73.5498 30.5789 71.9385 31.0476L42.5375 39.6189L28.6049 32.6529C26.9546 31.8373 25.0512 31.6981 23.2998 32.2648C21.5483 32.8316 20.0873 34.0595 19.2276 35.6873L4.81781 63.2833C4.38571 64.111 4.12279 65.0165 4.04437 65.9469C3.96596 66.8773 4.07363 67.814 4.3611 68.7023C4.64857 69.5907 5.11009 70.4129 5.71871 71.121C6.32734 71.8291 7.0709 72.4089 7.90599 72.8265L22.1793 79.9632L54.0217 104.862C54.7967 105.47 55.6915 105.907 56.6475 106.145L90.6067 114.635C91.1592 114.773 91.7264 114.842 92.2958 114.842C94.1649 114.843 95.9583 114.103 97.2837 112.786L118.844 91.2246C118.888 91.1814 118.929 91.1365 118.969 91.0901L128.036 80.4834L142.094 73.4545C142.929 73.0368 143.672 72.457 144.281 71.7489C144.89 71.0408 145.351 70.2186 145.639 69.3302C145.926 68.4418 146.034 67.5051 145.955 66.5747C145.877 65.6442 145.614 64.7387 145.182 63.911ZM116.814 86.3974L92.7846 68.9218C92.3792 68.627 91.89 68.4699 91.3888 68.4736C90.8876 68.4773 90.4007 68.6414 89.9996 68.9421L82.4997 74.5671C79.6545 76.6841 76.2025 77.8274 72.6561 77.8274C69.1097 77.8274 65.6578 76.6841 62.8125 74.5671L59.6362 72.1851C59.3676 71.9836 59.1454 71.7268 58.9847 71.432C58.8239 71.1372 58.7284 70.8113 58.7046 70.4764C58.6808 70.1415 58.7292 69.8054 58.8466 69.4908C58.964 69.1762 59.1476 68.8906 59.385 68.6531L82.3155 45.7226C82.756 45.2846 83.3514 45.0379 83.9726 45.036H96.087L96.0925 45.0365L96.1005 45.036H106.392L123.752 78.2806L116.814 86.3974ZM8.82095 67.2592C8.7241 66.9633 8.68766 66.6509 8.71381 66.3406C8.73995 66.0303 8.82814 65.7284 8.97315 65.4528L23.383 37.8568C23.5832 37.477 23.8835 37.1592 24.2513 36.9378C24.6191 36.7164 25.0405 36.5997 25.4698 36.6005C25.8303 36.6002 26.186 36.6841 26.5084 36.8455L39.0059 43.0939L22.4257 74.8455L10.0026 68.634C9.7236 68.4956 9.47527 68.3026 9.2723 68.0665C9.06932 67.8303 8.91584 67.5558 8.82095 67.2592ZM93.9696 109.471C93.6828 109.756 93.3272 109.963 92.9372 110.071C92.5472 110.179 92.1359 110.184 91.7431 110.087L57.7839 101.597C57.4654 101.518 57.1672 101.372 56.909 101.17L26.418 77.3274L43.742 44.1504L73.25 35.548C73.7871 35.3913 74.3625 35.4319 74.8722 35.6624L85.2283 40.3485H83.9726C83.0489 40.3459 82.134 40.5267 81.2806 40.8802C80.4273 41.2336 79.6526 41.7529 79.0013 42.4078L56.0707 65.3383C55.3583 66.0506 54.8073 66.9076 54.4549 67.8514C54.1026 68.7952 53.9572 69.8037 54.0285 70.8085C54.0999 71.8134 54.3863 72.7912 54.8685 73.6757C55.3507 74.5603 56.0173 75.3308 56.8232 75.9353L59.9995 78.3174C63.6579 81.0391 68.0963 82.5089 72.6561 82.5089C77.2159 82.5089 81.6542 81.0391 85.3127 78.3174L91.4273 73.7309L113.591 89.8494L93.9696 109.471ZM141.179 67.8872C141.084 68.1838 140.93 68.4583 140.727 68.6944C140.524 68.9306 140.276 69.1236 139.997 69.2619L127.574 75.4735L110.994 43.7219L123.491 37.4734C124.041 37.2013 124.676 37.1548 125.26 37.3438C125.844 37.5327 126.33 37.9423 126.617 38.4851L141.027 66.0805C141.172 66.3561 141.26 66.6581 141.286 66.9684C141.312 67.2788 141.276 67.5912 141.179 67.8872ZM67.8988 125.292C67.8244 125.59 67.6919 125.872 67.5087 126.119C67.3256 126.367 67.0954 126.575 66.8314 126.734C66.5675 126.892 66.2748 126.997 65.9703 127.042C65.6657 127.088 65.3553 127.072 65.0566 126.997L47.3967 122.583C46.322 122.313 45.3259 121.794 44.4887 121.068L31.2748 109.581C31.0417 109.38 30.8506 109.134 30.7126 108.858C30.5745 108.583 30.4922 108.283 30.4703 107.975C30.4484 107.668 30.4874 107.359 30.585 107.066C30.6827 106.774 30.837 106.504 31.0392 106.271C31.2415 106.039 31.4876 105.848 31.7636 105.711C32.0395 105.573 32.3398 105.492 32.6474 105.471C32.9549 105.45 33.2636 105.489 33.5557 105.588C33.8478 105.686 34.1177 105.841 34.3498 106.044L47.5644 117.53C47.8439 117.772 48.1763 117.945 48.5348 118.036L66.193 122.45C66.7961 122.6 67.3145 122.984 67.6344 123.517C67.9542 124.05 68.0493 124.689 67.8988 125.292Z" fill="black"/>
</svg>
