<svg width="150" height="150" viewBox="0 0 150 150" fill="none" xmlns="http://www.w3.org/2000/svg">
<path d="M141.258 98.5547C140.602 96.7266 140.367 96.0469 140.25 95.7656C139.591 94.0012 138.385 92.4941 136.807 91.465C135.23 90.4359 133.365 89.9389 131.484 90.0469C131.133 90.0469 130.781 90.0703 130.406 90.0937C127.5 90.3281 124.641 90.8203 121.875 91.2656C119.508 91.6641 117.047 92.0625 114.656 92.3203C109.187 92.9438 103.683 93.1943 98.1797 93.0703C93.5438 92.9311 88.9193 92.532 84.3281 91.875C84.5302 90.2477 84.2618 88.5966 83.5547 87.1172C82.9718 85.924 82.1381 84.8707 81.1107 84.0294C80.0832 83.188 78.8863 82.5784 77.6016 82.2422L55.3828 76.1953C51.8743 75.2587 48.191 75.1863 44.6484 75.9844L35.0859 78.1172V70.1484C35.0859 68.9052 34.5921 67.713 33.713 66.8339C32.8339 65.9548 31.6416 65.4609 30.3984 65.4609H12.8906C11.6474 65.4609 10.4551 65.9548 9.57606 66.8339C8.69698 67.713 8.20313 68.9052 8.20312 70.1484V128.742C8.20683 129.984 8.70189 131.174 9.58016 132.053C10.4584 132.931 11.6486 133.426 12.8906 133.43H30.3984C31.6405 133.426 32.8306 132.931 33.7089 132.053C34.5872 131.174 35.0822 129.984 35.0859 128.742V122.602L73.8281 129.633C75.607 129.953 77.4114 130.109 79.2188 130.102C82.989 130.103 86.7259 129.396 90.2344 128.016L135.984 109.898C138.178 109.08 139.961 107.431 140.948 105.308C141.935 103.185 142.046 100.759 141.258 98.5547ZM30.3984 128.742H12.8906V99.4453V70.1484H30.3984V128.742ZM134.25 105.539L88.5234 123.656C84.1233 125.392 79.3255 125.863 74.6719 125.016L35.0859 117.844V82.9219L45.6797 80.5547C48.4801 79.9289 51.3899 79.9852 54.1641 80.7187L76.3594 86.7656C76.9995 86.9236 77.5975 87.2194 78.1116 87.6323C78.6257 88.0452 79.0435 88.5653 79.3359 89.1563C79.5902 89.6805 79.7281 90.2535 79.7402 90.8361C79.7523 91.4186 79.6384 91.9968 79.4062 92.5312C78.9974 93.4217 78.3226 94.1635 77.4747 94.6546C76.6269 95.1456 75.6477 95.3619 74.6719 95.2734L55.4062 91.2891C54.8004 91.164 54.1697 91.2835 53.6516 91.6216C53.1335 91.9597 52.7701 92.4888 52.6406 93.0938C52.515 93.7025 52.6339 94.3362 52.9716 94.858C53.3092 95.3798 53.8386 95.7479 54.4453 95.8828L73.8516 99.8906C73.9281 99.91 74.0071 99.9179 74.0859 99.9141C74.3969 99.9525 74.7102 99.9681 75.0234 99.9609C76.4645 99.9619 77.8872 99.6379 79.1857 99.013C80.4842 98.3881 81.6251 97.4784 82.5234 96.3516C87.6618 97.1358 92.8434 97.6054 98.0391 97.7578C103.753 97.8864 109.469 97.628 115.148 96.9844C117.68 96.7031 120.211 96.3047 122.648 95.8828C125.32 95.4375 128.086 94.9922 130.805 94.7578C131.815 94.5599 132.862 94.7091 133.777 95.1814C134.692 95.6536 135.42 96.4211 135.844 97.3594V97.3828L136.852 100.148C137.216 101.208 137.147 102.37 136.66 103.379C136.173 104.389 135.307 105.165 134.25 105.539Z" fill="black"/>
<path d="M129.891 47.5312L124.875 41.1328L126.024 33.0937C126.091 32.5741 125.985 32.0467 125.723 31.5933C125.46 31.1399 125.055 30.7858 124.571 30.5859L117.047 27.5859L114.024 20.039C113.826 19.5529 113.472 19.1463 113.018 18.8833C112.564 18.6202 112.036 18.5156 111.516 18.5859L103.477 19.7344L97.1018 14.7422C96.6894 14.412 96.1769 14.2321 95.6486 14.2321C95.1204 14.2321 94.6079 14.412 94.1955 14.7422L87.8205 19.7344L79.7815 18.5859C79.2615 18.5156 78.7329 18.6202 78.2788 18.8833C77.8248 19.1463 77.4712 19.5529 77.2736 20.039L74.2502 27.5859L66.7268 30.5859C66.2424 30.7858 65.8374 31.1399 65.5747 31.5933C65.312 32.0467 65.2062 32.5741 65.2736 33.0937L66.4221 41.1328L61.4065 47.5312C61.0876 47.944 60.9146 48.451 60.9146 48.9726C60.9146 49.4943 61.0876 50.0012 61.4065 50.414L66.4221 56.8125L65.2736 64.8281C65.1952 65.349 65.2964 65.881 65.5605 66.3368C65.8246 66.7926 66.2359 67.1449 66.7268 67.3359L74.2502 70.3594L77.2736 77.8828C77.4681 78.3711 77.8212 78.7799 78.276 79.0435C78.7308 79.307 79.261 79.41 79.7815 79.3359L87.8205 78.1875L94.1955 83.2031C94.6117 83.5241 95.123 83.6973 95.6486 83.6953C96.1736 83.6934 96.6837 83.5207 97.1018 83.2031L103.477 78.1875L111.516 79.3359C112.033 79.4117 112.562 79.3121 113.016 79.053C113.47 78.7939 113.825 78.3902 114.024 77.9062L117.047 70.3594L124.571 67.3359C125.059 67.1414 125.468 66.7884 125.731 66.3336C125.995 65.8787 126.098 65.3485 126.024 64.8281L124.875 56.8125L129.891 50.414C130.21 50.0012 130.383 49.4943 130.383 48.9726C130.383 48.451 130.21 47.944 129.891 47.5312ZM120.563 54.7031C120.366 54.9519 120.223 55.2384 120.143 55.5449C120.062 55.8514 120.046 56.1712 120.094 56.4844L121.125 63.6797L114.352 66.375C114.058 66.4929 113.792 66.6703 113.57 66.8962C113.348 67.1221 113.175 67.3915 113.063 67.6875L110.344 74.4375L103.149 73.4062C102.834 73.3633 102.514 73.3847 102.207 73.4694C101.901 73.554 101.615 73.6999 101.367 73.8984L95.6486 78.375L89.9299 73.8984C89.5158 73.5708 89.0048 73.3895 88.4768 73.3828C88.3596 73.3828 88.2424 73.4062 88.1486 73.4062L80.9299 74.4375L78.2346 67.6875C78.1167 67.3909 77.9395 67.1214 77.7138 66.8958C77.4881 66.6701 77.2187 66.4929 76.9221 66.375L70.1721 63.6797L71.2033 56.4844C71.2461 56.1712 71.2267 55.8527 71.1463 55.5471C71.0658 55.2414 70.9259 54.9546 70.7346 54.7031L66.2346 48.9609L70.7346 43.2422C70.9259 42.9906 71.0658 42.7038 71.1463 42.3982C71.2267 42.0926 71.2461 41.7741 71.2033 41.4609L70.1721 34.2656L76.9221 31.5469C77.218 31.4343 77.4874 31.2616 77.7133 31.0398C77.9392 30.8179 78.1167 30.5517 78.2346 30.2578L80.9299 23.5078L88.1486 24.5156C88.4618 24.5626 88.7813 24.5453 89.0876 24.4647C89.3938 24.3841 89.6804 24.242 89.9299 24.0469L95.6486 19.5469L101.367 24.0469C101.617 24.242 101.903 24.3841 102.21 24.4647C102.516 24.5453 102.835 24.5626 103.149 24.5156L110.344 23.5078L113.063 30.2578C113.179 30.5486 113.354 30.8127 113.575 31.0342C113.797 31.2558 114.061 31.4301 114.352 31.5469L121.125 34.2656L120.094 41.4609C120.046 41.7741 120.062 42.0939 120.143 42.4004C120.223 42.7068 120.366 42.9934 120.563 43.2422L125.063 48.9609L120.563 54.7031Z" fill="black"/>
<path d="M83.9297 33.7266C82.539 33.7266 81.1796 34.1389 80.0233 34.9115C78.867 35.6841 77.9658 36.7823 77.4337 38.0671C76.9015 39.3519 76.7622 40.7656 77.0335 42.1295C77.3048 43.4935 77.9745 44.7463 78.9578 45.7297C79.9412 46.713 81.194 47.3827 82.558 47.654C83.9219 47.9253 85.3356 47.786 86.6204 47.2538C87.9052 46.7217 89.0034 45.8205 89.776 44.6642C90.5486 43.5079 90.9609 42.1485 90.9609 40.7578C90.9609 38.893 90.2201 37.1046 88.9015 35.786C87.5829 34.4674 85.7945 33.7266 83.9297 33.7266ZM83.9297 43.1016C83.4661 43.1016 83.013 42.9641 82.6276 42.7066C82.2421 42.449 81.9417 42.083 81.7643 41.6547C81.587 41.2265 81.5405 40.7552 81.631 40.3006C81.7214 39.8459 81.9446 39.4283 82.2724 39.1005C82.6002 38.7728 83.0178 38.5495 83.4724 38.4591C83.9271 38.3687 84.3983 38.4151 84.8266 38.5925C85.2549 38.7699 85.6209 39.0703 85.8784 39.4557C86.136 39.8411 86.2734 40.2943 86.2734 40.7578C86.2734 41.3794 86.0265 41.9756 85.587 42.4151C85.1474 42.8546 84.5513 43.1016 83.9297 43.1016Z" fill="black"/>
<path d="M107.367 50.1328C105.977 50.1328 104.617 50.5452 103.461 51.3178C102.305 52.0904 101.403 53.1885 100.871 54.4733C100.339 55.7581 100.2 57.1719 100.471 58.5358C100.742 59.8997 101.412 61.1526 102.395 62.1359C103.379 63.1192 104.632 63.7889 105.995 64.0602C107.359 64.3315 108.773 64.1923 110.058 63.6601C111.343 63.1279 112.441 62.2267 113.213 61.0704C113.986 59.9141 114.398 58.5547 114.398 57.1641C114.398 55.2993 113.658 53.5108 112.339 52.1922C111.02 50.8736 109.232 50.1328 107.367 50.1328ZM107.367 59.5078C106.904 59.5078 106.45 59.3704 106.065 59.1128C105.68 58.8553 105.379 58.4892 105.202 58.061C105.024 57.6327 104.978 57.1615 105.068 56.7068C105.159 56.2522 105.382 55.8346 105.71 55.5068C106.038 55.179 106.455 54.9558 106.91 54.8653C107.365 54.7749 107.836 54.8213 108.264 54.9987C108.692 55.1761 109.058 55.4765 109.316 55.8619C109.573 56.2474 109.711 56.7005 109.711 57.1641C109.711 57.7857 109.464 58.3818 109.024 58.8213C108.585 59.2609 107.989 59.5078 107.367 59.5078Z" fill="black"/>
<path d="M82.1837 61.0828C82.3895 61.3119 82.6384 61.4982 82.9163 61.6311C83.1942 61.764 83.4955 61.8408 83.8031 61.8571C84.1107 61.8734 84.4184 61.8289 84.7088 61.7262C84.9992 61.6236 85.2665 61.4646 85.4954 61.2586L108.933 40.1648C109.395 39.749 109.673 39.1665 109.706 38.5457C109.739 37.9249 109.523 37.3164 109.107 36.8543C108.692 36.3921 108.109 36.1141 107.488 36.0813C106.868 36.0486 106.259 36.2638 105.797 36.6797L82.3594 57.7734C81.8974 58.189 81.6193 58.7711 81.5863 59.3917C81.5533 60.0123 81.7682 60.6206 82.1837 61.0828Z" fill="black"/>
</svg>
