<svg width="150" height="150" viewBox="0 0 150 150" fill="none" xmlns="http://www.w3.org/2000/svg">
<g clip-path="url(#clip0_201_1212)">
<path d="M121.364 61.3636C121.364 35.7982 100.565 15 75.0001 15C49.4347 15 28.6362 35.7982 28.6362 61.3636C28.6362 72.7281 32.7627 83.1382 39.5753 91.2109C39.5725 91.2653 39.5454 91.3091 39.5454 91.3635V117C39.5454 118.061 40.159 119.024 41.1191 119.471L57.4828 127.107L73.8464 134.744C74.2118 134.916 74.6045 135 75.0001 135C75.3928 135 75.7883 134.916 76.1537 134.744L92.5173 127.107L108.881 119.471C109.841 119.026 110.455 118.061 110.455 117V91.3638C110.455 91.3093 110.427 91.2656 110.425 91.2111C117.237 83.1382 121.364 72.7281 121.364 61.3636ZM55.9091 120.355L44.9999 115.265V96.649C48.2754 99.439 51.9462 101.765 55.9091 103.565V120.355ZM88.6364 122.899L75.0001 129.262L61.3638 122.899V105.674C65.6784 107.004 70.2546 107.727 75.0001 107.727C79.7455 107.727 84.322 107.004 88.6364 105.674V122.899ZM105 115.263L94.0908 120.355V103.566C98.0536 101.766 101.724 99.4392 105 96.6492V115.263ZM75.0001 102.273C52.44 102.273 34.091 83.9209 34.091 61.3636C34.091 38.8063 52.44 20.4545 75.0001 20.4545C97.5574 20.4545 115.909 38.8063 115.909 61.3636C115.909 83.9209 97.5574 102.273 75.0001 102.273Z" fill="black"/>
<path d="M75.0001 25.9092C55.4509 25.9092 39.5454 41.8146 39.5454 61.3636C39.5454 80.9128 55.4509 96.8182 75.0001 96.8182C94.5493 96.8182 110.455 80.9128 110.455 61.3636C110.454 41.8146 94.549 25.9092 75.0001 25.9092ZM75.0001 91.3638C58.4592 91.3638 45.0001 77.9047 45.0001 61.3638C44.9999 44.8227 58.459 31.3636 75.0001 31.3636C91.5412 31.3636 105 44.8227 105 61.3636C105 77.9047 91.5409 91.3638 75.0001 91.3638Z" fill="black"/>
<path d="M92.264 56.2446C91.9421 55.26 91.0886 54.54 90.0602 54.3901L81.3412 53.1219L77.4413 45.2237C76.5249 43.3582 73.4677 43.3582 72.5514 45.2237L68.6515 53.1219L59.9325 54.3901C58.9044 54.5402 58.0506 55.2574 57.7287 56.2446C57.4096 57.2318 57.6743 58.3174 58.4188 59.04L64.7324 65.1873L63.2433 73.8764C63.0686 74.8992 63.4887 75.9329 64.3261 76.5409C65.1716 77.1545 66.2869 77.2335 67.1979 76.7482L75.0006 72.652L82.8006 76.7511C83.1987 76.961 83.6352 77.0648 84.0688 77.0648C84.6334 77.0648 85.1951 76.8901 85.6725 76.544C86.5124 75.9331 86.9325 74.9022 86.7553 73.8795L85.2662 65.1904L91.5744 59.0405C92.3184 58.3146 92.583 57.2318 92.264 56.2446ZM80.4356 62.2856C79.7946 62.9102 79.5001 63.8128 79.653 64.6992L80.4494 69.3519L76.2713 67.1563C75.8732 66.9464 75.4396 66.8426 75.0031 66.8426C74.5667 66.8426 74.133 66.9462 73.7349 67.1563L69.5568 69.3519L70.3533 64.6992C70.5059 63.8156 70.2114 62.9128 69.5706 62.2856L66.1915 58.9911L70.858 58.312C71.747 58.1839 72.5161 57.6248 72.9116 56.8201L75.0008 52.5901L77.09 56.8201C77.4881 57.6248 78.2546 58.1837 79.1436 58.312L83.8155 58.9911L80.4356 62.2856Z" fill="#121212"/>
<path d="M61.3636 47.7273C62.8699 47.7273 64.091 46.5062 64.091 44.9999C64.091 43.4937 62.8699 42.2726 61.3636 42.2726C59.8573 42.2726 58.6362 43.4937 58.6362 44.9999C58.6362 46.5062 59.8573 47.7273 61.3636 47.7273Z" fill="black"/>
<path d="M88.6365 47.7273C90.1428 47.7273 91.3639 46.5062 91.3639 44.9999C91.3639 43.4937 90.1428 42.2726 88.6365 42.2726C87.1303 42.2726 85.9092 43.4937 85.9092 44.9999C85.9092 46.5062 87.1303 47.7273 88.6365 47.7273Z" fill="black"/>
<path d="M55.909 69.5457C57.4153 69.5457 58.6364 68.3246 58.6364 66.8183C58.6364 65.312 57.4153 64.0909 55.909 64.0909C54.4027 64.0909 53.1816 65.312 53.1816 66.8183C53.1816 68.3246 54.4027 69.5457 55.909 69.5457Z" fill="black"/>
<path d="M94.0906 69.5457C95.5969 69.5457 96.818 68.3246 96.818 66.8183C96.818 65.312 95.5969 64.0909 94.0906 64.0909C92.5844 64.0909 91.3633 65.312 91.3633 66.8183C91.3633 68.3246 92.5844 69.5457 94.0906 69.5457Z" fill="black"/>
<path d="M75.0003 83.182C76.5066 83.182 77.7277 81.9609 77.7277 80.4546C77.7277 78.9483 76.5066 77.7272 75.0003 77.7272C73.494 77.7272 72.2729 78.9483 72.2729 80.4546C72.2729 81.9609 73.494 83.182 75.0003 83.182Z" fill="black"/>
</g>
<defs>
<clipPath id="clip0_201_1212">
<rect width="120" height="120" fill="white" transform="translate(15 15)"/>
</clipPath>
</defs>
</svg>
