<svg width="31" height="30" viewBox="0 0 31 30" fill="none" xmlns="http://www.w3.org/2000/svg">
<path d="M6.52454 12.9833C8.92454 17.7 12.7912 21.55 17.5079 23.9667L21.1745 20.3C21.6245 19.85 22.2912 19.7 22.8745 19.9C24.7412 20.5167 26.7579 20.85 28.8245 20.85C29.7412 20.85 30.4912 21.6 30.4912 22.5167V28.3333C30.4912 29.25 29.7412 30 28.8245 30C13.1745 30 0.491211 17.3167 0.491211 1.66667C0.491211 0.75 1.24121 0 2.15788 0H7.99121C8.90788 0 9.65788 0.75 9.65788 1.66667C9.65788 3.75 9.99121 5.75 10.6079 7.61667C10.7912 8.2 10.6579 8.85 10.1912 9.31667L6.52454 12.9833Z" fill="#03DFFC"/>
</svg>
