<svg width="150" height="150" viewBox="0 0 150 150" fill="none" xmlns="http://www.w3.org/2000/svg">
<g clip-path="url(#clip0_201_1296)">
<path d="M66.7894 133.105C66.7894 134.152 65.9409 135 64.8947 135H24.4737C19.2497 135 15 130.75 15 125.526C15 120.302 19.2497 116.053 24.4737 116.053H37.1934C37.3364 116.053 37.4599 116.001 37.5609 115.9C37.627 115.834 37.7379 115.688 37.737 115.454V115.421C37.737 110.197 41.9866 105.947 47.2106 105.947H54.7896C55.8361 105.947 56.6843 106.795 56.6843 107.842C56.6843 108.889 55.8359 109.737 54.7896 109.737H47.2106C44.0763 109.737 41.5263 112.287 41.5263 115.421V115.447C41.5305 116.629 41.0754 117.741 40.245 118.575C39.4308 119.392 38.347 119.842 37.1932 119.842H24.4737C21.3394 119.842 18.7894 122.392 18.7894 125.526C18.7894 128.661 21.3391 131.211 24.4737 131.211H64.8947C65.9412 131.211 66.7894 132.059 66.7894 133.105ZM100.263 61.737C101.31 61.737 102.158 60.889 102.158 59.8423C102.158 58.7955 101.309 57.9476 100.263 57.9476H90.1577C89.1113 57.9476 88.263 58.7955 88.263 59.8423C88.263 60.889 89.1115 61.737 90.1577 61.737H100.263ZM132.082 112.031C133.938 115.265 135 119.011 135 123V130.579C135 133.017 133.016 135 130.579 135H82.579C70.3901 135 60.4737 125.084 60.4737 112.895V95.2104C60.4737 94.5319 60.573 93.8597 60.7657 93.2156C59.0569 91.9486 57.9473 89.9173 57.9473 87.6314C57.9473 83.8008 61.0638 80.6841 64.8947 80.6841H68.0527V80.0524C68.0527 78.292 69.0865 76.7691 70.579 76.058V61.7365H49.2773L52.6132 100.099C52.7039 101.141 51.9323 102.06 50.8898 102.15C49.8464 102.246 48.9286 101.47 48.8379 100.427L45.454 61.5117C42.4711 60.7313 40.2635 58.0132 40.2635 54.7891V49.7365C40.2635 45.9059 43.38 42.7891 47.2109 42.7891H70.5792V21.9473C70.579 18.1167 73.6955 15 77.5263 15C81.3572 15 84.4737 18.1167 84.4737 21.9473V76.0582C85.9662 76.7688 87 78.2923 87 80.0527V80.6843H90.158C93.9888 80.6843 97.1053 83.801 97.1053 87.6316C97.1053 89.9175 95.9958 91.9488 94.2869 93.2159C94.4796 93.8602 94.579 94.5323 94.579 95.2106V97.737C94.579 99.4784 95.9955 100.895 97.737 100.895H112.895C121.026 100.895 128.145 105.308 131.985 111.863C132.019 111.917 132.052 111.973 132.082 112.031ZM74.3684 75.6316H80.6841V21.9473C80.6841 20.2059 79.2675 18.7894 77.5261 18.7894C75.7847 18.7894 74.3681 20.2059 74.3681 21.9473L74.3684 75.6316ZM70.579 57.9473V46.579H47.2106C45.4692 46.579 44.0527 47.9955 44.0527 49.737V54.7896C44.0527 56.5261 45.4615 57.9396 47.1961 57.9476C47.208 57.9478 47.2202 57.9478 47.2324 57.9476L70.579 57.9473ZM131.211 124.895H102.789C99.041 124.895 95.3372 123.939 92.0787 122.131C91.1637 121.623 90.8334 120.47 91.3413 119.555C91.8492 118.64 93.0021 118.309 93.9173 118.817C96.6152 120.315 99.6832 121.106 102.79 121.106H131.114C130.881 118.856 130.24 116.725 129.266 114.79H102.789C99.0408 114.79 95.3367 113.834 92.0775 112.026C91.1625 111.518 90.8323 110.365 91.3402 109.45C91.8476 108.535 93.0012 108.205 93.9162 108.713C96.6143 110.21 99.6825 111.001 102.789 111.001H126.721C123.36 107.134 118.408 104.685 112.895 104.685H97.7367C93.9059 104.685 90.7894 101.569 90.7894 97.7381V95.2118C90.7894 94.991 90.7664 94.7716 90.7212 94.5574C90.5353 94.5727 90.3473 94.5802 90.1577 94.5802H87.6314C86.5849 94.5802 85.7367 93.7322 85.7367 92.6855C85.7367 91.6387 86.5852 90.7908 87.6314 90.7908H90.1577C91.8991 90.7908 93.3157 89.3742 93.3157 87.6328C93.3157 85.8914 91.8991 84.4748 90.1577 84.4748H85.1051C84.0586 84.4748 83.2104 83.6269 83.2104 82.5802V80.0531C83.2104 79.7048 82.927 79.4215 82.5788 79.4215H72.4734C72.1254 79.4215 71.8418 79.7046 71.8418 80.0531V82.5795C71.8418 83.6262 70.9934 84.4741 69.9471 84.4741H64.8945C63.153 84.4741 61.7365 85.8907 61.7365 87.6321C61.7365 89.3735 63.153 90.7901 64.8945 90.7901H80.0524C81.0989 90.7901 81.9471 91.638 81.9471 92.6848C81.9471 93.7315 81.0987 94.5795 80.0524 94.5795H64.8945C64.7051 94.5795 64.5169 94.572 64.331 94.5567C64.286 94.7709 64.2628 94.9903 64.2628 95.2111V112.895C64.2628 122.144 71.1539 129.814 80.0707 131.04C74.3372 127.042 70.5785 120.399 70.5785 112.895V100.263C70.5785 99.2166 71.427 98.3686 72.4732 98.3686C73.5197 98.3686 74.3679 99.2166 74.3679 100.263V112.895C74.3679 122.144 81.259 129.814 90.1758 131.04C84.4423 127.042 80.6836 120.399 80.6836 112.895V100.263C80.6836 99.2166 81.532 98.3686 82.5783 98.3686C83.6245 98.3686 84.473 99.2166 84.473 100.263V112.895C84.473 122.994 92.6892 131.211 102.789 131.211H130.578C130.926 131.211 131.21 130.927 131.21 130.579V124.895H131.211ZM135 49.737V54.7896C135 58.0137 132.792 60.7317 129.81 61.512L126.426 100.428C126.34 101.414 125.512 102.158 124.54 102.158C124.485 102.158 124.43 102.156 124.374 102.151C123.332 102.061 122.56 101.142 122.651 100.1L125.986 61.7372H119.843V62.3688C119.843 64.2715 119.089 66.0469 117.72 67.368C116.351 68.689 114.545 69.3752 112.644 69.3115C108.889 69.1779 105.948 66.075 105.948 62.2477V54.1296C105.514 54.1692 105.075 54.168 104.635 54.1252C101.062 53.7773 98.3688 50.7553 98.3688 47.096V46.5795H90.1582C89.1117 46.5795 88.2635 45.7315 88.2635 44.6848C88.2635 43.638 89.112 42.7901 90.1582 42.7901H98.7956C99.5063 41.2978 101.03 40.2638 102.79 40.2638H115.421C117.182 40.2638 118.705 41.2978 119.416 42.7901H128.053C131.884 42.7894 135 45.9061 135 49.737ZM116.053 44.6843C116.053 44.336 115.769 44.0527 115.421 44.0527H102.789C102.441 44.0527 102.158 44.3358 102.158 44.6843V47.0958C102.158 48.7671 103.407 50.1982 105.001 50.3534C105.663 50.418 106.317 50.2755 106.892 49.9423C107.186 49.7723 107.514 49.687 107.842 49.687C108.169 49.687 108.495 49.7714 108.788 49.9402C109.375 50.2786 109.736 50.9041 109.736 51.5817V62.2474C109.736 63.9947 111.101 65.4647 112.777 65.5245C113.646 65.5493 114.465 65.2416 115.087 64.6413C115.71 64.0406 116.052 63.2334 116.052 62.3686V44.6841L116.053 44.6843ZM131.211 49.737C131.211 47.9955 129.794 46.579 128.053 46.579H119.842V57.9473H128.031C128.043 57.9473 128.055 57.9473 128.067 57.9473C129.802 57.9396 131.21 56.5261 131.21 54.7894V49.737H131.211Z" fill="black"/>
</g>
<defs>
<clipPath id="clip0_201_1296">
<rect width="120" height="120" fill="white" transform="translate(15 15)"/>
</clipPath>
</defs>
</svg>
