<svg width="120" height="120" viewBox="0 0 120 120" fill="none" xmlns="http://www.w3.org/2000/svg">
<path d="M92.7177 52.2249C92.7177 66.0335 81.5236 77.2275 67.7151 77.2275C53.9065 77.2275 42.7124 66.0335 42.7124 52.2249C42.7124 38.4163 53.9065 27.2222 67.7151 27.2222C81.5236 27.2222 92.7177 38.4163 92.7177 52.2249Z" stroke="#121212" stroke-width="4"/>
<path d="M107.777 7.86358C94.2377 7.86358 81.0007 5.31371 68.4328 0.287617L67.7152 0L66.9997 0.287205C54.4301 5.31371 41.1927 7.86317 27.6529 7.86317H23.3535V48.3674H13.7099C10.5198 48.3674 7.92383 50.9633 7.92383 54.1534V86.9426C7.92383 90.1327 10.5198 92.7291 13.7099 92.7291H31.0686C31.0723 92.7291 31.0743 92.7291 31.078 92.7291C35.6338 99.9676 41.9466 105.947 49.4727 110.049L67.7148 120L85.9569 110.049C102.07 101.262 112.076 84.4026 112.076 66.0507V7.86358H107.777ZM11.7809 86.9426V54.1534C11.7809 53.0906 12.645 52.2249 13.7095 52.2249H31.0681C32.1326 52.2249 32.9967 53.091 32.9967 54.1534V86.9426C32.9967 88.0054 32.1326 88.8715 31.0681 88.8715H13.7099C12.645 88.8715 11.7809 88.0054 11.7809 86.9426ZM36.855 57.9941C43.2954 57.6452 48.4276 52.2944 48.4276 45.7698V35.8307C48.4276 33.173 50.5899 31.0087 53.2496 31.0087C55.9094 31.0087 58.0716 33.1726 58.0716 35.8307V47.9703C58.0716 51.3801 60.8453 54.1538 64.2552 54.1538H78.3949C82.0767 54.1538 85.0743 57.1493 85.0743 60.8332V82.1922C85.0743 85.8761 82.0771 88.8715 78.3949 88.8715H49.9764C48.4449 88.8715 47.0253 88.1095 46.1748 86.8368C44.6088 84.4878 41.9873 83.0855 39.1638 83.0855H36.855V57.9941ZM108.219 66.0502C108.219 82.9888 98.9823 98.5518 84.1114 106.662L67.7152 115.606L51.319 106.662C44.6088 103.001 38.9383 97.7301 34.7685 91.3535C35.9391 90.3697 36.709 88.9427 36.8168 87.3224C40.7089 94.0363 46.3139 99.5372 53.1669 103.275L67.7156 111.212L82.2644 103.275C95.8951 95.8414 104.362 81.5783 104.362 66.0519V36.7948H100.505V66.0523C100.505 80.1649 92.8091 93.1323 80.4185 99.8886L67.7156 106.817L55.0128 99.8886C49.5777 96.924 45.012 92.7348 41.5808 87.6659C42.119 88.0033 42.6012 88.4317 42.9658 88.9777C44.5318 91.3268 47.1533 92.7291 49.9768 92.7291H78.3953C84.2065 92.7291 88.9322 88.0017 88.9322 82.1922V60.8332C88.9322 55.0237 84.2069 50.2963 78.3953 50.2963H64.2556C62.973 50.2963 61.9296 49.2528 61.9296 47.9703V35.8307C61.9296 31.0453 58.0354 27.1512 53.25 27.1512C48.4646 27.1512 44.5705 31.0453 44.5705 35.8307V45.7677C44.5705 50.1655 41.1586 53.7411 36.8476 54.0864C36.8283 52.4105 36.0856 50.9172 34.9265 49.8721V19.2144C46.1287 18.526 57.1479 16.2366 67.7152 12.398C78.283 16.2362 89.3001 18.5256 100.504 19.2144V21.3651H104.361V15.5441L102.521 15.4593C90.8447 14.9252 79.359 12.5951 68.3843 8.5351L67.7148 8.28616L67.0453 8.53305C56.0686 12.593 44.5828 14.9232 32.9082 15.4572L31.0681 15.5441V48.3678H27.2106V11.7211H27.6521C41.4293 11.7211 54.9017 9.17494 67.7144 4.15255C80.5271 9.17494 93.9994 11.7211 107.777 11.7211H108.218L108.219 66.0502Z" fill="#090909"/>
<path d="M36.855 57.9941C43.2954 57.6452 48.4276 52.2944 48.4276 45.7698V35.8307C48.4276 33.173 50.5899 31.0087 53.2496 31.0087C55.9094 31.0087 58.0716 33.1726 58.0716 35.8307V47.9703C58.0716 51.3801 60.8453 54.1538 64.2552 54.1538H78.3949C82.0767 54.1538 85.0743 57.1493 85.0743 60.8332V82.1922C85.0743 85.8761 82.0771 88.8715 78.3949 88.8715H49.9764C48.4449 88.8715 47.0253 88.1095 46.1748 86.8368C44.6088 84.4878 41.9873 83.0855 39.1638 83.0855H36.855V57.9941Z" fill="#F5F5F5"/>
<path d="M104.361 29.0797H100.504V32.9372H104.361V29.0797Z" fill="#090909"/>
<path d="M29.1398 81.1565H15.6387V85.014H29.1398V81.1565Z" fill="#090909"/>
</svg>
